Coordinates
version=1
nRows=16
nColumns=40
inDegrees=yes

Units are S.I. units (second, meters, Newtons, ...)
Angles are in degrees.

endheader
time	pelvis_tilt	pelvis_list	pelvis_rotation	pelvis_tx	pelvis_ty	pelvis_tz	hip_flexion_r	hip_adduction_r	hip_rotation_r	knee_angle_r	knee_angle_r_beta	ankle_angle_r	subtalar_angle_r	mtp_angle_r	hip_flexion_l	hip_adduction_l	hip_rotation_l	knee_angle_l	knee_angle_l_beta	ankle_angle_l	subtalar_angle_l	mtp_angle_l	lumbar_extension	lumbar_bending	lumbar_rotation	arm_flex_r	arm_add_r	arm_rot_r	elbow_flex_r	pro_sup_r	wrist_flex_r	wrist_dev_r	arm_flex_l	arm_add_l	arm_rot_l	elbow_flex_l	pro_sup_l	wrist_flex_l	wrist_dev_l
     55.15128571	     -1.96982723	     -3.67054598	      7.18722394	      0.89474887	      0.91390373	      0.57856013	     14.68794207	      4.76211400	    -11.11453971	     29.44626469	     29.44626469	     18.15375082	    -15.00849465	     -0.00059899	     34.56614776	    -10.32991551	      4.62500240	     53.00446006	     53.00446006	     13.02463369	    -19.44228035	     20.18760399	    -12.24183988	      4.73418248	      0.58091921	     33.33596783	    -17.59825762	    -11.54131263	     65.62445392	     45.32809074	      0.00000000	      0.00000000	      0.56711668	     -7.83118833	      6.00188855	     20.89820270	     45.44922541	      0.00000000	      0.00000000
     55.17007143	     -2.17405406	     -3.49459465	      7.62624400	      0.89318008	      0.91316433	      0.57837090	     14.73850193	      4.53207058	    -11.29333705	     29.73212656	     29.73212656	     18.49345709	    -15.28766676	      0.10990971	     34.92434482	     -9.81205145	      4.60400476	     49.74864114	     49.74864114	     12.13616775	    -19.36347544	     20.03647689	    -12.19864717	      4.45139366	      0.40414074	     35.60079623	    -17.55848844	    -11.54159797	     67.92084745	     45.26322586	      0.00000000	      0.00000000	     -1.38854615	     -8.00195174	      6.19604077	     20.19053987	     45.36748572	      0.00000000	      0.00000000
     55.18885714	     -2.45251608	     -3.38562457	      8.06101041	      0.89176449	      0.91291258	      0.57795458	     14.67060933	      4.36227132	    -11.56642762	     29.66641940	     29.66641940	     18.87703962	    -15.27321788	      0.64910816	     35.07494347	     -9.37773106	      4.48295310	     46.04571557	     46.04571557	     10.16639195	    -19.24071088	     17.28914766	    -12.12831712	      4.27340228	      0.63029728	     37.11958099	    -18.25304982	    -11.06123532	     71.74944550	     45.13968811	      0.00000000	      0.00000000	     -3.42725651	     -8.28288944	      6.80555165	     20.85040910	     45.16931139	      0.00000000	      0.00000000
     55.20764286	     -2.74142873	     -3.13850999	      8.46123356	      0.89043536	      0.91333679	      0.57716655	     14.43308553	      4.03443142	    -11.82699604	     29.31938934	     29.31938934	     18.99035846	    -15.22751476	      0.72465085	     35.03209861	     -8.67301680	      4.50280020	     42.28292859	     42.28292859	      9.03880145	    -18.98800412	     17.17941420	    -11.97386877	      3.95772620	      0.56301133	     39.30956989	    -18.33286818	    -11.06858050	     73.69636427	     45.08865632	      0.00000000	      0.00000000	     -5.05061595	     -8.38912703	      6.99956113	     20.42498885	     45.09334311	      0.00000000	      0.00000000
     55.22642857	     -3.11531978	     -3.01854843	      8.85070965	      0.88935815	      0.91394138	      0.57618855	     14.12086603	      3.80784517	    -12.23663844	     28.67009516	     28.67009516	     19.03776234	    -14.83838596	      0.61632033	     34.80617544	     -8.20085752	      4.31769471	     38.15604676	     38.15604676	      6.31857704	    -18.59057736	     12.45559464	    -11.77119374	      3.79478151	      0.72233933	     40.88853515	    -18.95996303	    -10.49343132	     77.41946709	     44.97810915	      0.00000000	      0.00000000	     -7.02848169	     -8.69381808	      7.86370042	     21.82663430	     44.84166246	      0.00000000	      0.00000000
     55.24521429	     -3.44463604	     -2.82131491	      9.21457429	      0.88840038	      0.91522138	      0.57492400	     13.58823087	      3.54336571	    -12.58670766	     27.72512339	     27.72512339	     18.96824253	    -14.54129785	      0.70391105	     34.47714095	     -7.56162982	      4.36290653	     34.34163794	     34.34163794	      5.46914359	    -17.60358270	     12.38475562	    -11.51087146	      3.52914520	      0.73427228	     42.98121479	    -19.05062131	    -10.48326956	     79.03784571	     44.93878080	      0.00000000	      0.00000000	     -8.37092968	     -8.69488959	      8.10049030	     21.58787696	     44.76741780	      0.00000000	      0.00000000
     55.26400000	     -3.80152934	     -2.75310843	      9.55158246	      0.88770759	      0.91647464	      0.57348482	     12.95375950	      3.38730317	    -13.09210297	     26.51460157	     26.51460157	     18.53769234	    -13.98542867	     -0.21303070	     33.92393845	     -7.19549985	      4.16636947	     30.24109834	     30.24109834	      2.83387080	    -16.48691909	      6.80619992	    -11.25214263	      3.46292123	      0.77575147	     44.83352185	    -19.30652721	    -10.08413177	     81.60881194	     44.92587224	      0.00000000	      0.00000000	    -10.18890136	     -9.18581316	     11.08981222	     23.39512852	     44.20817511	      0.00000000	      0.00000000
     55.28278571	     -4.16968144	     -2.62576081	      9.81492505	      0.88711722	      0.91800368	      0.57193902	     12.27636563	      3.21150077	    -13.45420088	     25.25235812	     25.25235812	     18.39307546	    -13.35270168	     -0.09437847	     33.52889579	     -6.78003889	      3.97239410	     26.93686724	     26.93686724	      2.80953874	    -14.33840279	      7.00114298	    -10.92432866	      3.27178254	      0.92608955	     46.71665869	    -19.48547867	     -9.91602709	     83.08883438	     44.88539838	      0.00000000	      0.00000000	    -11.19381991	     -9.12025643	     11.24085260	     23.46930388	     44.16677476	      0.00000000	      0.00000000
     55.30157143	     -4.48873419	     -2.63768561	     10.03855178	      0.88675012	      0.91933581	      0.57026033	     11.48535826	      3.15281693	    -14.05758152	     23.85386367	     23.85386367	     18.05241908	    -12.35958609	     -0.72456960	     33.13924521	     -6.62304916	      3.53953044	     24.04052225	     24.04052225	      2.71652353	    -11.78832827	      5.89143492	    -10.70144885	      3.27309567	      1.09407568	     48.40052316	    -19.97324961	     -9.11513297	     85.56299439	     44.82042020	      0.00000000	      0.00000000	    -12.66847818	     -9.35277284	     12.06336730	     25.52580119	     44.02365397	      0.00000000	      0.00000000
     55.32035714	     -4.85248751	     -2.66154492	     10.18500499	      0.88644511	      0.92048577	      0.56848562	     10.78934442	      3.13911816	    -14.45429967	     22.53717118	     22.53717118	     17.84493837	    -11.54146878	     -0.67688337	     32.76896777	     -6.42879708	      3.31343817	     21.51710504	     21.51710504	      3.05885433	     -9.78738075	      5.92141107	    -10.37876912	      3.23591762	      1.23951287	     50.24526396	    -19.99489328	     -8.98273149	     86.65159764	     44.79628016	      0.00000000	      0.00000000	    -13.34305548	     -9.20855022	     12.32833409	     25.78605813	     43.97861177	      0.00000000	      0.00000000
     55.33914286	     -5.08828840	     -2.70214493	     10.27684005	      0.88641118	      0.92149083	      0.56667790	      9.93963825	      3.15963446	    -14.89780766	     21.23150473	     21.23150473	     17.73866481	    -10.50187842	     -0.77072576	     32.28279090	     -6.35627969	      2.92275874	     19.42168869	     19.42168869	      3.43568819	     -7.75847841	      5.86579669	    -10.13395941	      3.25793926	      1.44010767	     51.97243396	    -19.97448369	     -8.63050187	     87.77673036	     44.76455744	      0.00000000	      0.00000000	    -14.03131435	     -9.09451475	     12.60748115	     26.41835983	     43.92981790	      0.00000000	      0.00000000
     55.35792857	     -5.30897024	     -2.80066205	     10.27648866	      0.88648971	      0.92203927	      0.56482767	      9.18663559	      3.22627546	    -15.28786441	     20.13303541	     20.13303541	     17.67058763	     -9.46235386	     -0.92368586	     31.84157367	     -6.37938096	      2.51093082	     17.80366959	     17.80366959	      3.86504469	     -6.13496740	      5.72642457	     -9.91727833	      3.30595571	      1.66136650	     53.58795853	    -19.97221531	     -8.22233295	     88.67705378	     44.73861649	      0.00000000	      0.00000000	    -14.63159510	     -9.01315096	     12.91844985	     27.27769185	     43.87889606	      0.00000000	      0.00000000
     55.37671429	     -5.52247131	     -2.96116096	     10.20757141	      0.88671086	      0.92210347	      0.56296761	      8.57880256	      3.34054442	    -15.59426739	     19.32194099	     19.32194099	     17.68370369	     -8.56979148	     -1.09349095	     31.43981296	     -6.48552837	      2.15319571	     16.58940968	     16.58940968	      4.20424829	     -4.98784345	      5.49780753	     -9.68376331	      3.41493929	      1.92076029	     55.12909642	    -19.91453691	     -7.83389999	     89.29621622	     44.72211460	      0.00000000	      0.00000000	    -15.04925375	     -8.92895136	     13.26985417	     28.19650626	     43.82799058	      0.00000000	      0.00000000
     55.39550000	     -5.90125231	     -3.17021301	     10.06318464	      0.88687664	      0.92131107	      0.56108160	      8.42555194	      3.45787818	    -15.55973414	     19.00782247	     19.00782247	     17.81937838	     -8.22345191	     -1.16824660	     31.38986584	     -6.58676864	      2.03314352	     15.96139505	     15.96139505	      4.41295989	     -4.65236741	      5.41280540	     -9.22499955	      3.51137250	      2.35211520	     56.44023835	    -19.88797059	     -7.78260919	     89.65577345	     44.71646965	      0.00000000	      0.00000000	    -15.13925610	     -8.72032109	     13.38239577	     28.46432433	     43.81255456	      0.00000000	      0.00000000
     55.41428571	     -5.84048842	     -3.34673257	      9.92896578	      0.88754945	      0.92098102	      0.55908057	      7.64159173	      3.60621573	    -15.82219868	     18.48593396	     18.48593396	     18.01991741	     -7.38323592	     -1.31526757	     30.65518076	     -6.80060528	      1.58246939	     15.20712956	     15.20712956	      4.39742258	     -3.90205522	      4.92756740	     -9.33192634	      3.63855104	      2.49272335	     57.74830939	    -19.66271111	     -7.39369849	     89.90723174	     44.70855564	      0.00000000	      0.00000000	    -15.24053375	     -8.66569602	     13.73140790	     29.26374338	     43.76779372	      0.00000000	      0.00000000
     55.43307143	     -5.89376841	     -3.56477837	      9.73122247	      0.88832729	      0.91984951	      0.55699873	      7.23158036	      3.71502138	    -15.91583038	     18.46001663	     18.46001663	     18.37867680	     -6.77353498	     -1.53699129	     30.17149754	     -7.03201248	      1.21666468	     14.76882291	     14.76882291	      3.01095104	     -3.97579817	      1.53774493	     -9.18097435	      3.76317153	      2.27005993	     59.11702791	    -19.04211835	     -6.47029881	     88.97010534	     44.76772701	      0.00000000	      0.00000000	    -16.13319144	     -9.24705807	     16.18055939	     31.95009823	     43.51305746	      0.00000000	      0.00000000
